# xmcd CD database file
#
# Track frame offsets:
#	150
#	27502
#	56402
#
# Disc length: 980 seconds
#
# Revision: 0
# Processed by: cddbd v1.5.2PL0 Copyright (c) Steve Scherf et al.
# Submitted via: CDex 1.51
#
DISCID=1f03d203
DTITLE=Robert Miles featuring Nina Miranda - Paths [CD1 Of A 2 CD Set)
DYEAR=2001
DGENRE=New Age
TTITLE0=Paths (Robert Miles Salted Remix)
TTITLE1=Paths (Jah Wobble Remix)
TTITLE2=Paths (Future Sound Of London 'Cosmicukebox' Remix - Edit)
EXTD=YEAR: 2001
EXTT0=
EXTT1=
EXTT2=
PLAYORDER=
